<svg xmlns="http://www.w3.org/2000/svg" xmlns:xlink="http://www.w3.org/1999/xlink" width="16" height="16" viewBox="0 0 16 16">
    <defs>
        <path id="prefix__a" d="M0 0H16V16H0z"/>
    </defs>
    <g fill="none" fill-rule="evenodd">
        <mask id="prefix__b" fill="#fff">
            <use xlink:href="#prefix__a"/>
        </mask>
        <g fill="#6D7884" mask="url(#prefix__b)">
            <path d="M11.985 13.1c-.553 0-1-.448-1-1V6.592l-6.738 6.74c-.39.39-1.024.39-1.414 0-.39-.391-.39-1.025 0-1.415l6.853-6.853-5.737-.001c-.552 0-1-.448-1-1s.448-1 1-1h8c.255 0 .488.095.664.252l.12.12c.156.176.252.409.252.663v8c0 .553-.448 1-1 1z"/>
        </g>
    </g>
</svg>
