<svg xmlns="http://www.w3.org/2000/svg" width="34" height="34" viewBox="0 0 34 34">
    <g fill="#979797" fill-rule="nonzero">
        <path d="M17 24c3.69 0 6.974-2.19 9.83-6.442a1 1 0 0 0 0-1.116C23.974 12.19 20.69 10 17 10c-3.69 0-6.974 2.19-9.83 6.442a1 1 0 0 0 0 1.116C10.026 21.81 13.31 24 17 24zm0-12c2.788 0 5.376 1.63 7.784 5-2.408 3.37-4.996 5-7.784 5-2.788 0-5.376-1.63-7.784-5 2.408-3.37 4.996-5 7.784-5z"/>
        <path d="M17 21a4 4 0 1 0 0-8 4 4 0 0 0 0 8zm0-2a2 2 0 1 1 0-4 2 2 0 0 1 0 4z"/>
    </g>
</svg>
