<svg xmlns="http://www.w3.org/2000/svg" width="34" height="34" viewBox="0 0 34 34">
    <g fill="none" fill-rule="evenodd">
        <path fill="#979797" fill-rule="nonzero" d="M20.055 23.47A8.998 8.998 0 0 1 17 24c-3.69 0-6.974-2.19-9.83-6.442a1 1 0 0 1 0-1.116c.842-1.254 1.721-2.328 2.638-3.22l1.413 1.413A17.275 17.275 0 0 0 9.216 17c2.408 3.37 4.996 5 7.784 5 .485 0 .964-.05 1.437-.149l1.618 1.618zm1.904-.925l-1.463-1.463c1.49-.811 2.918-2.165 4.288-4.082-2.408-3.37-4.996-5-7.784-5-1.462 0-2.87.449-4.225 1.361l-1.435-1.436C13.104 10.65 14.992 10 17 10c3.69 0 6.974 2.19 9.83 6.442a1 1 0 0 1 0 1.116c-1.506 2.242-3.13 3.91-4.87 4.987z"/>
        <path fill="#979797" fill-rule="nonzero" d="M17.548 20.963a4 4 0 0 1-4.511-4.511l4.511 4.51zm1.972-.857l-1.43-1.43a2 2 0 1 0-2.767-2.767l-1.43-1.43a4 4 0 1 1 5.627 5.627z"/>
        <path fill="#D8D8D8" stroke="#979797" d="M9.222 9.929l.707-.707 14.85 14.85-.708.706z"/>
    </g>
</svg>
